<?xml version="1.0" encoding="UTF-8"?>
<svg id="Layer_1" data-name="Layer 1" xmlns="http://www.w3.org/2000/svg" viewBox="0 0 374.1 78.35">
  <defs>
    <style>
      .cls-1 {
        fill: #ff7900;
      }

      .cls-2 {
        fill: #fff;
      }
    </style>
  </defs>
  <path class="cls-2" d="M23.03,19.31c13.38,0,22.86,9.48,22.86,22.77,0,1.02-.08,2.29-.17,3.3l-36.23-.08c1.1,7.62,6.43,12.7,13.46,12.7,5.76,0,11.09-3.39,12.7-8.13l8.63,1.27c-2.46,8.47-11.34,14.56-21.16,14.56-13.46,0-23.11-9.91-23.11-23.7s9.65-22.69,23.03-22.69ZM36.32,38.52c-1.02-6.77-6.43-11.51-13.54-11.51s-12.02,4.66-13.21,11.51h26.75Z"/>
  <path class="cls-2" d="M65.86,64l-15.75-43h9.82l12.36,35.89,12.44-35.89h9.9l-15.83,43h-12.95Z"/>
  <path class="cls-2" d="M164.74,1.53v62.48h-9.14V1.53h9.14Z"/>
  <path class="cls-2" d="M205.72,64v-5.5c-2.96,4.49-8.38,7.2-13.88,7.2-10.58,0-17.44-7.79-17.44-18.46v-26.24h9.23v25.57c0,6.35,3.73,10.92,10.24,10.92s11.77-4.91,11.77-11.77v-24.72h9.14v43h-9.06Z"/>
  <path class="cls-2" d="M267.35,35.64l-8.8,1.1c-1.35-5.59-6.6-9.57-12.53-9.57-7.62,0-13.63,6.43-13.63,15.32.08,8.89,5.93,15.32,13.63,15.32,6.09,0,11.09-3.98,12.61-9.48l8.8,1.1c-1.78,9.4-10.84,16.25-21.42,16.25-13.21,0-22.77-9.74-22.77-23.2s9.57-23.2,22.69-23.2c10.92,0,19.89,6.86,21.42,16.34Z"/>
  <path class="cls-2" d="M309.76,21h9.23v43h-9.23v-6.43c-3.64,5.08-9.31,8.13-16,8.13-12.61,0-21.59-9.74-21.59-23.2s8.97-23.2,21.59-23.2c6.69,0,12.36,3.05,16,8.13v-6.43ZM309.68,42.5c0-8.72-5.93-14.98-14.14-14.98s-14.22,6.26-14.22,14.98,6.01,14.98,14.22,14.98,14.14-6.26,14.14-14.98Z"/>
  <path class="cls-2" d="M374.1,42.5c0,13.63-9.65,23.2-23.37,23.2s-23.37-9.57-23.37-23.2,9.57-23.2,23.37-23.2,23.37,9.57,23.37,23.2ZM364.96,42.5c0-8.72-6.01-14.98-14.22-14.98s-14.14,6.26-14.14,14.98,5.84,14.98,14.14,14.98,14.22-6.26,14.22-14.98Z"/>
  <g>
    <rect class="cls-1" x="132.87" y="21.42" width="10.96" height="10.96" transform="translate(21.5 105.71) rotate(-45)"/>
    <path class="cls-1" d="M144.33,46.81c-3.01,0-5.48-2.46-5.48-5.48s2.46-5.48,5.48-5.48,5.48,2.46,5.48,5.48-2.46,5.48-5.48,5.48Z"/>
    <rect class="cls-1" x="132.87" y="50.29" width="10.96" height="10.96" rx="4.56" ry="4.56" transform="translate(1.09 114.16) rotate(-45)"/>
    <rect class="cls-1" x="118.44" y="56.26" width="10.96" height="10.96" rx="3.65" ry="3.65"/>
    <rect class="cls-1" x="104.01" y="50.29" width="10.96" height="10.96" rx="2.19" ry="2.19" transform="translate(-7.36 93.75) rotate(-45)"/>
    <rect class="cls-1" x="98.03" y="35.85" width="10.96" height="10.96" rx="1.83" ry="1.83"/>
    <rect class="cls-1" x="104.01" y="21.42" width="10.96" height="10.96" rx="1.46" ry="1.46" transform="translate(13.05 85.3) rotate(-45)"/>
    <rect class="cls-1" x="118.44" y="15.44" width="10.96" height="10.96" rx=".37" ry=".37"/>
  </g>
  <rect class="cls-2" x="285.81" y="5.8" width="20" height="6"/>
  <rect class="cls-2" x="234.31" y="72.46" width="20" height="6"/>
  <g>
    <path class="cls-1" d="M8.79,10.17l2.39.32c-.36,2.39-2.62,4.11-5.39,4.11-3.35,0-5.79-2.44-5.79-5.8S2.44,3,5.79,3c2.74,0,5,1.77,5.39,4.22l-2.41.27c-.3-1.34-1.52-2.3-2.92-2.3-1.93,0-3.29,1.49-3.29,3.61s1.37,3.61,3.29,3.61c1.37,0,2.6-.94,2.94-2.24Z"/>
    <path class="cls-1" d="M15.92,8.8c0-3.43,2.44-5.8,6-5.8s6,2.38,6,5.8-2.45,5.8-6,5.8-6-2.36-6-5.8ZM18.48,8.8c0,2.12,1.42,3.59,3.44,3.61,2.02,0,3.44-1.49,3.44-3.61s-1.42-3.61-3.44-3.61-3.44,1.49-3.44,3.61Z"/>
    <path class="cls-1" d="M33.17,14.22V3.38h2.56v8.65h4.54v2.19h-7.09Z"/>
    <path class="cls-1" d="M47.8,12.16h5.3v2.05h-7.76V3.38h7.61v2.05h-5.14v2.31h4.54v1.83h-4.54v2.59ZM51.99,0l-2.04,2.31h-1.9l1.74-2.31h2.21Z"/>
    <path class="cls-1" d="M67.08,9.68h-3.33v-1.62h5.82c.35,3.79-2.07,6.53-5.72,6.53s-6-2.44-6-5.8,2.51-5.8,6-5.8c2.62,0,4.78,1.6,5.25,3.84l-2.38.41c-.34-1.19-1.54-2.06-2.89-2.06-1.99,0-3.43,1.51-3.43,3.61s1.46,3.61,3.5,3.61c1.75,0,3.15-1.19,3.18-2.72Z"/>
    <path class="cls-1" d="M77.4,3.38v10.84h-2.56V3.38h2.56Z"/>
    <path class="cls-1" d="M82.65,8.8c0-3.43,2.44-5.8,6-5.8s6,2.38,6,5.8-2.45,5.8-6,5.8-6-2.36-6-5.8ZM85.21,8.8c0,2.12,1.42,3.59,3.44,3.61,2.02,0,3.44-1.49,3.44-3.61s-1.42-3.61-3.44-3.61-3.44,1.49-3.44,3.61Z"/>
  </g>
</svg>